<svg width="657.9px" height="122px" xmlns="http://www.w3.org/2000/svg" viewBox="-78.94687499999998 14 657.89375 122" style="background: rgba(0, 0, 0, 0)" preserveAspectRatio="xMidYMid"><defs><linearGradient id="editing-gradient-gradient" x1="0" x2="1" y1="0.5" y2="0.5" gradientUnits="objectBoundingBox"><stop offset="0" stop-color="#ff00ff"></stop><stop offset="1" stop-color="#00ffff"></stop></linearGradient></defs><g transform="rotate(0,246,87.9)"><g transform="matrix(1.3,0,0,1.6,-45.9,188.3)"><path d="M 3.5 -53.3 L -10.4 -53.3 L -2.3 -95.6 L 11.8 -95.6 L 3.5 -53.3 Z M 59.3 -52.1 L 59.3 -52.1 L 59.3 -52.1 Q 51.5 -52.1 51.5 -58.1 L 51.5 -58.1 L 51.5 -58.1 Q 51.5 -60.7 52.6 -65.8 L 52.6 -65.8 L 52.6 -65.8 Q 53.8 -70.9 54.1 -72.9 L 54.1 -72.9 L 54.1 -72.9 Q 55 -77.6 55 -79.1 L 55 -79.1 L 55 -79.1 Q 55 -82.3 52.6 -82.3 L 52.6 -82.3 L 52.6 -82.3 Q 51 -82.3 49.5 -80.1 L 49.5 -80.1 L 49.5 -80.1 Q 47.9 -77.9 47.2 -73.5 L 47.2 -73.5 L 43.3 -53.3 L 30.8 -52.1 L 34.2 -69.5 L 34.2 -69.5 Q 34.8 -72.3 35.3 -75.6 L 35.3 -75.6 L 35.3 -75.6 Q 35.8 -78.9 35.8 -79.4 L 35.8 -79.4 L 35.8 -79.4 Q 35.8 -82.3 33.7 -82.3 L 33.7 -82.3 L 33.7 -82.3 Q 32.2 -82.3 30.6 -80.2 L 30.6 -80.2 L 30.6 -80.2 Q 29 -78 28.1 -73.5 L 28.1 -73.5 L 24.2 -53.3 L 11.6 -52.1 L 18.3 -86 L 28.7 -87.3 L 27.6 -80.8 L 27.6 -80.8 Q 29.3 -84.2 32.4 -85.8 L 32.4 -85.8 L 32.4 -85.8 Q 35.4 -87.3 40.2 -87.3 L 40.2 -87.3 L 40.2 -87.3 Q 43 -87.3 44.8 -85.9 L 44.8 -85.9 L 44.8 -85.9 Q 46.6 -84.6 47.2 -82.4 L 47.2 -82.4 L 47.2 -82.4 Q 48.2 -84.6 51 -85.9 L 51 -85.9 L 51 -85.9 Q 53.8 -87.3 57.2 -87.3 L 57.2 -87.3 L 57.2 -87.3 Q 60.7 -87.3 62.4 -86.5 L 62.4 -86.5 L 62.4 -86.5 Q 64.1 -85.8 65.1 -84.6 L 65.1 -84.6 L 65.1 -84.6 Q 66.8 -82.3 66.8 -78.2 L 66.8 -78.2 L 66.8 -78.2 Q 66.8 -74.2 65.1 -65.8 L 65.1 -65.8 L 65.1 -65.8 Q 64.2 -61.7 64.2 -60.2 L 64.2 -60.2 L 64.2 -60.2 Q 64.2 -58.7 65 -57.8 L 65 -57.8 L 65 -57.8 Q 65.9 -56.9 67.2 -56.8 L 67.2 -56.8 L 67.2 -56.8 Q 66.6 -54.6 64.3 -53.3 L 64.3 -53.3 L 64.3 -53.3 Q 62.1 -52.1 59.3 -52.1 Z M 74.9 -55.3 L 74.9 -55.3 L 74.9 -55.3 Q 73.4 -56.9 72.7 -59.5 L 72.7 -59.5 L 72.7 -59.5 Q 72.1 -62.2 72.1 -66.5 L 72.1 -66.5 L 72.1 -66.5 Q 72.1 -70.7 73.5 -74.6 L 73.5 -74.6 L 73.5 -74.6 Q 75 -78.6 77.7 -81.4 L 77.7 -81.4 L 77.7 -81.4 Q 83.2 -87.3 92.3 -87.3 L 92.3 -87.3 L 92.3 -87.3 Q 95.5 -87.3 97.9 -86.2 L 97.9 -86.2 L 108.9 -87.3 L 104.1 -62.3 L 104.1 -62.3 Q 103.9 -61.5 103.9 -60.1 L 103.9 -60.1 L 103.9 -60.1 Q 103.9 -58.7 104.8 -57.8 L 104.8 -57.8 L 104.8 -57.8 Q 105.7 -56.9 106.9 -56.8 L 106.9 -56.8 L 106.9 -56.8 Q 106.3 -54.6 104 -53.3 L 104 -53.3 L 104 -53.3 Q 101.6 -52.1 99 -52.1 L 99 -52.1 L 99 -52.1 Q 96.4 -52.1 94.6 -53 L 94.6 -53 L 94.6 -53 Q 92.9 -54 92.3 -55.7 L 92.3 -55.7 L 92.3 -55.7 Q 91.3 -54.1 89.1 -53.1 L 89.1 -53.1 L 89.1 -53.1 Q 87 -52.1 84.1 -52.1 L 84.1 -52.1 L 84.1 -52.1 Q 81.1 -52.1 78.8 -52.8 L 78.8 -52.8 L 78.8 -52.8 Q 76.4 -53.6 74.9 -55.3 Z M 88.4 -81.2 L 88.4 -81.2 L 88.4 -81.2 Q 87.7 -80.1 87 -78.1 L 87 -78.1 L 87 -78.1 Q 86.4 -76.2 85.3 -71 L 85.3 -71 L 85.3 -71 Q 84.3 -65.8 84.3 -62 L 84.3 -62 L 84.3 -62 Q 84.3 -58.3 84.9 -57.2 L 84.9 -57.2 L 84.9 -57.2 Q 85.4 -56.2 86.5 -56.2 L 86.5 -56.2 L 86.5 -56.2 Q 88.5 -56.2 90 -58.1 L 90 -58.1 L 90 -58.1 Q 91.5 -60.1 92.1 -63.5 L 92.1 -63.5 L 95.5 -82.3 L 95.5 -82.3 Q 94.1 -83.4 92.6 -83.4 L 92.6 -83.4 L 92.6 -83.4 Q 91 -83.4 90.1 -82.9 L 90.1 -82.9 L 90.1 -82.9 Q 89.1 -82.4 88.4 -81.2 Z M 116.6 -80.1 L 116.6 -80.1 L 116.6 -80.1 Q 118.8 -83.2 122.1 -85.2 L 122.1 -85.2 L 122.1 -85.2 Q 125.4 -87.3 129.4 -87.3 L 129.4 -87.3 L 129.4 -87.3 Q 133.4 -87.3 135.4 -86 L 135.4 -86 L 147.9 -87.3 L 143.5 -62.7 L 143.5 -62.7 Q 141.3 -50.1 136.6 -45.2 L 136.6 -45.2 L 136.6 -45.2 Q 132 -40.5 123.2 -40.5 L 123.2 -40.5 L 123.2 -40.5 Q 116.5 -40.5 112.6 -42.6 L 112.6 -42.6 L 112.6 -42.6 Q 108.8 -44.8 108.8 -48.3 L 108.8 -48.3 L 108.8 -48.3 Q 108.8 -50.9 110.8 -52.4 L 110.8 -52.4 L 110.8 -52.4 Q 112.8 -53.9 115.8 -53.9 L 115.8 -53.9 L 115.8 -53.9 Q 118.5 -53.9 120.6 -52.7 L 120.6 -52.7 L 120.6 -52.7 Q 121.8 -52.1 122.4 -51.2 L 122.4 -51.2 L 122.4 -51.2 Q 120.9 -49.9 120.9 -47.8 L 120.9 -47.8 L 120.9 -47.8 Q 120.9 -45 123.4 -45 L 123.4 -45 L 123.4 -45 Q 127.7 -45 130.2 -55.1 L 130.2 -55.1 L 130.2 -55.1 Q 130.9 -57.9 131.4 -60.6 L 131.4 -60.6 L 131.4 -60.6 Q 128.6 -57.1 122 -57.1 L 122 -57.1 L 122 -57.1 Q 117.5 -57.1 114.9 -59.3 L 114.9 -59.3 L 114.9 -59.3 Q 112.2 -61.5 112.2 -66.6 L 112.2 -66.6 L 112.2 -66.6 Q 112.2 -69.8 113.3 -73.4 L 113.3 -73.4 L 113.3 -73.4 Q 114.4 -77 116.6 -80.1 Z M 124.9 -66.4 L 124.9 -66.4 L 124.9 -66.4 Q 124.9 -62 127.2 -62 L 127.2 -62 L 127.2 -62 Q 128.7 -62 130.2 -63.7 L 130.2 -63.7 L 130.2 -63.7 Q 131.3 -65 131.8 -67 L 131.8 -67 L 135 -83.5 L 135 -83.5 Q 134.7 -83.5 134.4 -83.7 L 134.4 -83.7 L 134.4 -83.7 Q 133.8 -83.9 132.9 -83.9 L 132.9 -83.9 L 132.9 -83.9 Q 129 -83.9 126.7 -77.5 L 126.7 -77.5 L 126.7 -77.5 Q 124.9 -72.5 124.9 -66.4 Z M 176.3 -64.2 L 176.3 -64.2 L 176.3 -64.2 Q 177.9 -63.1 177.9 -60.7 L 177.9 -60.7 L 177.9 -60.7 Q 177.9 -58.3 176.7 -56.7 L 176.7 -56.7 L 176.7 -56.7 Q 175.5 -55.2 173.5 -54.2 L 173.5 -54.2 L 173.5 -54.2 Q 169.4 -52.1 165 -52.1 L 165 -52.1 L 165 -52.1 Q 160.6 -52.1 158 -53 L 158 -53 L 158 -53 Q 155.4 -54 153.7 -55.8 L 153.7 -55.8 L 153.7 -55.8 Q 150.3 -59.2 150.3 -65.4 L 150.3 -65.4 L 150.3 -65.4 Q 150.3 -75 155.5 -80.9 L 155.5 -80.9 L 155.5 -80.9 Q 161.1 -87.3 170.9 -87.3 L 170.9 -87.3 L 170.9 -87.3 Q 177 -87.3 180 -84.7 L 180 -84.7 L 180 -84.7 Q 182.3 -82.8 182.3 -79.6 L 182.3 -79.6 L 182.3 -79.6 Q 182.3 -68.4 162.8 -68.4 L 162.8 -68.4 L 162.8 -68.4 Q 162.6 -66.7 162.6 -65.3 L 162.6 -65.3 L 162.6 -65.3 Q 162.6 -62.4 163.9 -61.2 L 163.9 -61.2 L 163.9 -61.2 Q 165.2 -60.1 167.6 -60.1 L 167.6 -60.1 L 167.6 -60.1 Q 170 -60.1 172.6 -61.2 L 172.6 -61.2 L 172.6 -61.2 Q 175.2 -62.4 176.3 -64.2 Z M 163.3 -71.1 L 163.3 -71.1 L 163.3 -71.1 Q 167.8 -71.1 170.4 -73.9 L 170.4 -73.9 L 170.4 -73.9 Q 173 -76.6 173 -80.9 L 173 -80.9 L 173 -80.9 Q 173 -82.4 172.5 -83.2 L 172.5 -83.2 L 172.5 -83.2 Q 172 -84 170.9 -84 L 170.9 -84 L 170.9 -84 Q 169.8 -84 168.9 -83.6 L 168.9 -83.6 L 168.9 -83.6 Q 167.9 -83.2 167 -81.8 L 167 -81.8 L 167 -81.8 Q 164.6 -78.6 163.3 -71.1 Z M 203.6 -75.8 L 203.6 -75.8 L 203.6 -75.8 Q 204.5 -78.2 204.5 -80.2 L 204.5 -80.2 L 204.5 -80.2 Q 204.5 -84 201.4 -84 L 201.4 -84 L 201.4 -84 Q 199.8 -84 198.5 -82.6 L 198.5 -82.6 L 198.5 -82.6 Q 197.2 -81.1 197.2 -79.3 L 197.2 -79.3 L 197.2 -79.3 Q 197.2 -78 198.2 -77 L 198.2 -77 L 198.2 -77 Q 199.7 -75.6 203.4 -73.3 L 203.4 -73.3 L 203.4 -73.3 Q 207.2 -71 208.7 -69.1 L 208.7 -69.1 L 208.7 -69.1 Q 210.1 -67.2 210.1 -64.6 L 210.1 -64.6 L 210.1 -64.6 Q 210.1 -62 208.9 -59.7 L 208.9 -59.7 L 208.9 -59.7 Q 207.6 -57.3 205.4 -55.6 L 205.4 -55.6 L 205.4 -55.6 Q 200.6 -52.1 192.9 -52.1 L 192.9 -52.1 L 192.9 -52.1 Q 188.7 -52.1 185.5 -54.2 L 185.5 -54.2 L 185.5 -54.2 Q 182.3 -56.3 182.3 -58.8 L 182.3 -58.8 L 182.3 -58.8 Q 182.3 -61.3 184.2 -62.8 L 184.2 -62.8 L 184.2 -62.8 Q 186 -64.3 188.7 -64.3 L 188.7 -64.3 L 188.7 -64.3 Q 191.4 -64.3 193 -63.3 L 193 -63.3 L 193 -63.3 Q 192.2 -61.1 192.2 -59.7 L 192.2 -59.7 L 192.2 -59.7 Q 192.2 -55.5 195.8 -55.5 L 195.8 -55.5 L 195.8 -55.5 Q 197.3 -55.5 198.3 -56.5 L 198.3 -56.5 L 198.3 -56.5 Q 199.4 -57.4 199.4 -59.1 L 199.4 -59.1 L 199.4 -59.1 Q 199.4 -62.4 193.8 -65.8 L 193.8 -65.8 L 193.8 -65.8 Q 189.4 -68.8 188.3 -69.9 L 188.3 -69.9 L 188.3 -69.9 Q 186.6 -72 186.6 -74.5 L 186.6 -74.5 L 186.6 -74.5 Q 186.6 -77.1 187.8 -79.5 L 187.8 -79.5 L 187.8 -79.5 Q 189 -81.9 191.3 -83.7 L 191.3 -83.7 L 191.3 -83.7 Q 196 -87.3 204.1 -87.3 L 204.1 -87.3 L 204.1 -87.3 Q 208.2 -87.3 210.7 -85.6 L 210.7 -85.6 L 210.7 -85.6 Q 213.2 -83.9 213.2 -81.1 L 213.2 -81.1 L 213.2 -81.1 Q 213.2 -78.3 211.5 -76.7 L 211.5 -76.7 L 211.5 -76.7 Q 209.8 -75.1 206.7 -75.1 L 206.7 -75.1 L 206.7 -75.1 Q 204.6 -75.1 203.6 -75.8 Z M 254.6 -73.9 L 267.6 -75.1 L 267.6 -75.1 Q 263 -65 263 -53.3 L 263 -53.3 L 263 -53.3 Q 261.2 -52.1 258.7 -52.1 L 258.7 -52.1 L 258.7 -52.1 Q 256.2 -52.1 254.6 -53.2 L 254.6 -53.2 L 254.6 -53.2 Q 253 -54.4 252.7 -55.6 L 252.7 -55.6 L 252.7 -55.6 Q 251.1 -54 248.5 -53 L 248.5 -53 L 248.5 -53 Q 245.9 -52.1 243.1 -52.1 L 243.1 -52.1 L 243.1 -52.1 Q 240.4 -52.1 238 -53 L 238 -53 L 238 -53 Q 235.6 -53.8 233.7 -55.8 L 233.7 -55.8 L 233.7 -55.8 Q 229.6 -60.2 229.6 -68.4 L 229.6 -68.4 L 229.6 -68.4 Q 229.6 -81.2 236.5 -88.9 L 236.5 -88.9 L 236.5 -88.9 Q 243.5 -96.9 256 -96.9 L 256 -96.9 L 256 -96.9 Q 264.6 -96.9 267.7 -92.4 L 267.7 -92.4 L 267.7 -92.4 Q 268.7 -91 268.7 -89.3 L 268.7 -89.3 L 268.7 -89.3 Q 268.7 -87.6 267.9 -86.1 L 267.9 -86.1 L 267.9 -86.1 Q 267.2 -84.7 266 -83.5 L 266 -83.5 L 266 -83.5 Q 263.3 -81 259.9 -81 L 259.9 -81 L 259.9 -81 Q 258.6 -81 257.3 -81.4 L 257.3 -81.4 L 257.3 -81.4 Q 257.5 -83.4 257.5 -85.6 L 257.5 -85.6 L 257.5 -85.6 Q 257.5 -87.8 257.4 -88.9 L 257.4 -88.9 L 257.4 -88.9 Q 257.2 -89.9 256.8 -90.7 L 256.8 -90.7 L 256.8 -90.7 Q 256 -92.4 254.2 -92.4 L 254.2 -92.4 L 254.2 -92.4 Q 252.3 -92.4 250.3 -90.5 L 250.3 -90.5 L 250.3 -90.5 Q 248.3 -88.5 246.7 -85.3 L 246.7 -85.3 L 246.7 -85.3 Q 243.2 -78.2 243.2 -69.5 L 243.2 -69.5 L 243.2 -69.5 Q 243.2 -65.6 244.7 -62.7 L 244.7 -62.7 L 244.7 -62.7 Q 246.4 -59.7 249.3 -59.7 L 249.3 -59.7 L 249.3 -59.7 Q 250.4 -59.7 251.3 -60.2 L 251.3 -60.2 L 251.3 -60.2 Q 252.2 -60.7 252.6 -61.1 L 252.6 -61.1 L 254.6 -73.9 Z M 273.5 -55.3 L 273.5 -55.3 L 273.5 -55.3 Q 272 -56.9 271.3 -59.5 L 271.3 -59.5 L 271.3 -59.5 Q 270.6 -62.2 270.6 -66.5 L 270.6 -66.5 L 270.6 -66.5 Q 270.6 -70.7 272.1 -74.6 L 272.1 -74.6 L 272.1 -74.6 Q 273.6 -78.6 276.3 -81.4 L 276.3 -81.4 L 276.3 -81.4 Q 281.8 -87.3 290.9 -87.3 L 290.9 -87.3 L 290.9 -87.3 Q 294.1 -87.3 296.5 -86.2 L 296.5 -86.2 L 307.4 -87.3 L 302.7 -62.3 L 302.7 -62.3 Q 302.5 -61.5 302.5 -60.1 L 302.5 -60.1 L 302.5 -60.1 Q 302.5 -58.7 303.4 -57.8 L 303.4 -57.8 L 303.4 -57.8 Q 304.2 -56.9 305.5 -56.8 L 305.5 -56.8 L 305.5 -56.8 Q 304.9 -54.6 302.6 -53.3 L 302.6 -53.3 L 302.6 -53.3 Q 300.2 -52.1 297.6 -52.1 L 297.6 -52.1 L 297.6 -52.1 Q 295 -52.1 293.2 -53 L 293.2 -53 L 293.2 -53 Q 291.4 -54 290.9 -55.7 L 290.9 -55.7 L 290.9 -55.7 Q 289.9 -54.1 287.7 -53.1 L 287.7 -53.1 L 287.7 -53.1 Q 285.6 -52.1 282.6 -52.1 L 282.6 -52.1 L 282.6 -52.1 Q 279.7 -52.1 277.4 -52.8 L 277.4 -52.8 L 277.4 -52.8 Q 275 -53.6 273.5 -55.3 Z M 287 -81.2 L 287 -81.2 L 287 -81.2 Q 286.3 -80.1 285.6 -78.1 L 285.6 -78.1 L 285.6 -78.1 Q 285 -76.2 283.9 -71 L 283.9 -71 L 283.9 -71 Q 282.9 -65.8 282.9 -62 L 282.9 -62 L 282.9 -62 Q 282.9 -58.3 283.4 -57.2 L 283.4 -57.2 L 283.4 -57.2 Q 284 -56.2 285 -56.2 L 285 -56.2 L 285 -56.2 Q 287.1 -56.2 288.6 -58.1 L 288.6 -58.1 L 288.6 -58.1 Q 290.1 -60.1 290.7 -63.5 L 290.7 -63.5 L 294.1 -82.3 L 294.1 -82.3 Q 292.7 -83.4 291.2 -83.4 L 291.2 -83.4 L 291.2 -83.4 Q 289.6 -83.4 288.7 -82.9 L 288.7 -82.9 L 288.7 -82.9 Q 287.7 -82.4 287 -81.2 Z M 326.2 -56.9 L 326.2 -56.9 L 326.2 -56.9 Q 324.2 -52.1 317.9 -52.1 L 317.9 -52.1 L 317.9 -52.1 Q 314.7 -52.1 312.6 -54.3 L 312.6 -54.3 L 312.6 -54.3 Q 311 -56.2 311 -58.3 L 311 -58.3 L 311 -58.3 Q 311 -63.1 313.2 -73.6 L 313.2 -73.6 L 317.9 -98.1 L 330.9 -99.4 L 324.7 -67 L 324.7 -67 Q 323.6 -62.3 323.6 -60.6 L 323.6 -60.6 L 323.6 -60.6 Q 323.6 -57 326.2 -56.9 Z M 346.9 -56.9 L 346.9 -56.9 L 346.9 -56.9 Q 345 -52.1 338.6 -52.1 L 338.6 -52.1 L 338.6 -52.1 Q 335.4 -52.1 333.4 -54.3 L 333.4 -54.3 L 333.4 -54.3 Q 331.7 -56.2 331.7 -58.3 L 331.7 -58.3 L 331.7 -58.3 Q 331.7 -63.1 333.9 -73.6 L 333.9 -73.6 L 338.6 -98.1 L 351.6 -99.4 L 345.4 -67 L 345.4 -67 Q 344.3 -62.3 344.3 -60.6 L 344.3 -60.6 L 344.3 -60.6 Q 344.3 -57 346.9 -56.9 Z M 378.3 -64.2 L 378.3 -64.2 L 378.3 -64.2 Q 379.9 -63.1 379.9 -60.7 L 379.9 -60.7 L 379.9 -60.7 Q 379.9 -58.3 378.7 -56.7 L 378.7 -56.7 L 378.7 -56.7 Q 377.5 -55.2 375.5 -54.2 L 375.5 -54.2 L 375.5 -54.2 Q 371.4 -52.1 367 -52.1 L 367 -52.1 L 367 -52.1 Q 362.6 -52.1 360 -53 L 360 -53 L 360 -53 Q 357.4 -54 355.6 -55.8 L 355.6 -55.8 L 355.6 -55.8 Q 352.2 -59.2 352.2 -65.4 L 352.2 -65.4 L 352.2 -65.4 Q 352.2 -75 357.5 -80.9 L 357.5 -80.9 L 357.5 -80.9 Q 363.1 -87.3 372.9 -87.3 L 372.9 -87.3 L 372.9 -87.3 Q 379 -87.3 382 -84.7 L 382 -84.7 L 382 -84.7 Q 384.2 -82.8 384.2 -79.6 L 384.2 -79.6 L 384.2 -79.6 Q 384.2 -68.4 364.8 -68.4 L 364.8 -68.4 L 364.8 -68.4 Q 364.5 -66.7 364.5 -65.3 L 364.5 -65.3 L 364.5 -65.3 Q 364.5 -62.4 365.8 -61.2 L 365.8 -61.2 L 365.8 -61.2 Q 367.2 -60.1 369.6 -60.1 L 369.6 -60.1 L 369.6 -60.1 Q 372 -60.1 374.6 -61.2 L 374.6 -61.2 L 374.6 -61.2 Q 377.2 -62.4 378.3 -64.2 Z M 365.2 -71.1 L 365.2 -71.1 L 365.2 -71.1 Q 369.8 -71.1 372.4 -73.9 L 372.4 -73.9 L 372.4 -73.9 Q 375 -76.6 375 -80.9 L 375 -80.9 L 375 -80.9 Q 375 -82.4 374.5 -83.2 L 374.5 -83.2 L 374.5 -83.2 Q 373.9 -84 372.9 -84 L 372.9 -84 L 372.9 -84 Q 371.8 -84 370.8 -83.6 L 370.8 -83.6 L 370.8 -83.6 Q 369.9 -83.2 369 -81.8 L 369 -81.8 L 369 -81.8 Q 366.6 -78.6 365.2 -71.1 Z M 406.5 -71.3 L 406.5 -71.3 L 406.5 -71.3 Q 408.8 -75.4 408.8 -79.6 L 408.8 -79.6 L 408.8 -79.6 Q 408.8 -82.3 406.8 -82.3 L 406.8 -82.3 L 406.8 -82.3 Q 405.2 -82.3 403.6 -79.7 L 403.6 -79.7 L 403.6 -79.7 Q 402 -77.1 401.5 -73.7 L 401.5 -73.7 L 398.1 -53.3 L 384.9 -52.1 L 391.4 -86 L 402 -87.3 L 400.8 -80.8 L 400.8 -80.8 Q 404 -87.3 411 -87.3 L 411 -87.3 L 411 -87.3 Q 414.7 -87.3 416.7 -85.3 L 416.7 -85.3 L 416.7 -85.3 Q 418.7 -83.4 418.7 -79.5 L 418.7 -79.5 L 418.7 -79.5 Q 418.7 -75.5 416.2 -73 L 416.2 -73 L 416.2 -73 Q 413.6 -70.6 409.1 -70.6 L 409.1 -70.6 L 409.1 -70.6 Q 407.2 -70.6 406.5 -71.3 Z M 440.1 -60.6 L 440.1 -60.6 L 440.1 -60.6 Q 436.8 -57.1 430.7 -57.1 L 430.7 -57.1 L 430.7 -57.1 Q 423.1 -57.1 421.5 -62.7 L 421.5 -62.7 L 421.5 -62.7 Q 421 -64.3 421 -66.2 L 421 -66.2 L 421 -66.2 Q 421 -68.1 421.4 -70 L 421.4 -70 L 424.4 -86 L 437.4 -87.3 L 433.8 -68.6 L 433.8 -68.6 Q 433.7 -67.8 433.5 -66.9 L 433.5 -66.9 L 433.5 -66.9 Q 433.3 -66 433.3 -65.1 L 433.3 -65.1 L 433.3 -65.1 Q 433.3 -64.2 433.7 -63.5 L 433.7 -63.5 L 433.7 -63.5 Q 434 -62.9 434.4 -62.6 L 434.4 -62.6 L 434.4 -62.6 Q 435.2 -62 436.6 -62 L 436.6 -62 L 436.6 -62 Q 437.9 -62 439.1 -63.7 L 439.1 -63.7 L 439.1 -63.7 Q 440.3 -65.4 440.9 -68.2 L 440.9 -68.2 L 444.4 -86 L 457 -87.3 L 452.2 -62.1 L 452.2 -62.1 Q 449.8 -49.8 445 -45 L 445 -45 L 445 -45 Q 442.5 -42.5 439.3 -41.5 L 439.3 -41.5 L 439.3 -41.5 Q 436 -40.5 431.9 -40.5 L 431.9 -40.5 L 431.9 -40.5 Q 425.1 -40.5 421.3 -42.6 L 421.3 -42.6 L 421.3 -42.6 Q 417.5 -44.7 417.5 -48.2 L 417.5 -48.2 L 417.5 -48.2 Q 417.5 -50.8 419.4 -52.3 L 419.4 -52.3 L 419.4 -52.3 Q 421.4 -53.8 424.5 -53.8 L 424.5 -53.8 L 424.5 -53.8 Q 427.2 -53.8 429.2 -52.7 L 429.2 -52.7 L 429.2 -52.7 Q 430.5 -52 431 -51.1 L 431 -51.1 L 431 -51.1 Q 429.6 -49.8 429.6 -47.7 L 429.6 -47.7 L 429.6 -47.7 Q 429.6 -44.9 432.1 -44.9 L 432.1 -44.9 L 432.1 -44.9 Q 436.3 -44.9 438.8 -54.6 L 438.8 -54.6 L 438.8 -54.6 Q 439.5 -57.5 440.1 -60.6 Z" fill="url(#editing-gradient-gradient)"></path></g></g><style>text {
  font-size: 64px;
  font-family: Arial Black;
  dominant-baseline: central;
  text-anchor: middle;
}</style></svg>